<?xml version="1.0" encoding="utf-8"?>
<!-- Generator: Adobe Illustrator 16.0.0, SVG Export Plug-In . SVG Version: 6.00 Build 0)  -->
<!DOCTYPE svg PUBLIC "-//W3C//DTD SVG 1.1//EN" "http://www.w3.org/Graphics/SVG/1.1/DTD/svg11.dtd">
<svg version="1.1" id="Calque_1" xmlns="http://www.w3.org/2000/svg" xmlns:xlink="http://www.w3.org/1999/xlink" x="0px" y="0px"
	 width="36.821px" height="32.709px" viewBox="0 0 36.821 32.709" enable-background="new 0 0 36.821 32.709" xml:space="preserve">
<path fill="#FBBA00" d="M14.349,8.506l2.086-8.291c0.082-0.326,0.561-0.267,0.561,0.069v10.868H9.825
	c-0.276,0-0.358-0.374-0.109-0.491L14.349,8.506z"/>
<path fill="#F39200" d="M14.349,8.506l2.086-8.291c0.082-0.326,0.561-0.267,0.561,0.069v10.868L14.349,8.506z"/>
<path fill="#F39200" d="M11.919,7.621c-0.773-0.623-0.61-1.201-0.126-1.687c0.485-0.484,1.064-0.647,1.686,0.126
	c0.523,0.649,0.587,1.404,0.215,1.775C13.323,8.207,12.568,8.143,11.919,7.621"/>
<path fill="#00ADBA" d="M20.963,8.506l8.291,2.086c0.325,0.082,0.266,0.561-0.07,0.561H18.315v-7.17c0-0.276,0.374-0.359,0.49-0.109
	L20.963,8.506z"/>
<path fill="#008D9D" d="M20.963,8.506l8.291,2.086c0.325,0.082,0.266,0.561-0.07,0.561H18.315L20.963,8.506z"/>
<path fill="#008D9D" d="M21.849,6.077c0.623-0.774,1.201-0.611,1.686-0.126s0.647,1.063-0.126,1.686
	c-0.647,0.523-1.402,0.587-1.774,0.215S21.325,6.725,21.849,6.077"/>
<path fill="#A84D97" d="M20.963,15.122l-2.087,8.291c-0.081,0.325-0.561,0.268-0.561-0.068V12.476h7.17
	c0.276,0,0.358,0.374,0.109,0.49L20.963,15.122z"/>
<path fill="#6E368C" d="M20.963,15.122l-2.087,8.291c-0.081,0.325-0.561,0.268-0.561-0.068V12.476L20.963,15.122z"/>
<path fill="#6E368C" d="M23.393,16.008c0.772,0.624,0.609,1.203,0.125,1.688s-1.063,0.646-1.686-0.126
	c-0.522-0.649-0.587-1.403-0.215-1.776C21.988,15.422,22.743,15.486,23.393,16.008"/>
<path fill="#C88D73" d="M14.349,15.122l-8.291-2.085c-0.325-0.083-0.266-0.562,0.069-0.562h10.869v7.171
	c0,0.276-0.375,0.358-0.49,0.109L14.349,15.122z"/>
<path fill="#8B6052" d="M14.349,15.122l-8.291-2.085c-0.325-0.083-0.266-0.562,0.069-0.562h10.869L14.349,15.122z"/>
<path fill="#8B6052" d="M13.463,17.554c-0.623,0.772-1.201,0.609-1.686,0.125c-0.485-0.483-0.647-1.063,0.125-1.688
	c0.648-0.522,1.404-0.586,1.775-0.214C14.049,16.148,13.985,16.904,13.463,17.554"/>
<text transform="matrix(1 0 0 1 0 30.5205)" fill="#8B6052" font-family="'Nunito-Black'" font-size="7.5454">NADIEMA</text>
<text transform="matrix(1 0 0 1 0.4336 32.1689)"><tspan x="0" y="0" fill="#8B6052" font-family="'Nunito-Black'" font-size="1.0336">Ensemble pour un d</tspan><tspan x="11.022" y="0" fill="#8B6052" font-family="'Nunito-Black'" font-size="1.0336">év</tspan><tspan x="12.251" y="0" fill="#8B6052" font-family="'Nunito-Black'" font-size="1.0336">eloppement économique </tspan><tspan x="26.125" y="0" fill="#8B6052" font-family="'Nunito-Black'" font-size="1.0336">e</tspan><tspan x="26.745" y="0" fill="#8B6052" font-family="'Nunito-Black'" font-size="1.0336">t social solidai</tspan><tspan x="34.896" y="0" fill="#8B6052" font-family="'Nunito-Black'" font-size="1.0336">r</tspan><tspan x="35.393" y="0" fill="#8B6052" font-family="'Nunito-Black'" font-size="1.0336">e</tspan></text>
</svg>
